<svg width="20" height="21" viewBox="0 0 20 21" fill="none" xmlns="http://www.w3.org/2000/svg">
<g clip-path="url(#clip0_35_196)">
<path d="M9.0625 4.9834C9.0625 4.46387 9.48047 4.0459 10 4.0459C10.5195 4.0459 10.9375 4.46387 10.9375 4.9834V9.7959L14.2695 12.0146C14.6992 12.3037 14.8164 12.8857 14.4961 13.3154C14.2422 13.7451 13.6602 13.8623 13.2305 13.542L9.48047 11.042C9.21875 10.9014 9.0625 10.6084 9.0625 10.2607V4.9834ZM10 0.295898C15.5234 0.295898 20 4.77246 20 10.2959C20 15.8193 15.5234 20.2959 10 20.2959C4.47656 20.2959 0 15.8193 0 10.2959C0 4.77246 4.47656 0.295898 10 0.295898ZM1.875 10.2959C1.875 14.7842 5.51172 18.4209 10 18.4209C14.4883 18.4209 18.125 14.7842 18.125 10.2959C18.125 5.80762 14.4883 2.1709 10 2.1709C5.51172 2.1709 1.875 5.80762 1.875 10.2959Z" fill="black"/>
</g>
<defs>
<clipPath id="clip0_35_196">
<rect width="20" height="20" fill="white" transform="translate(0 0.295898)"/>
</clipPath>
</defs>
</svg>
