<svg width="50" height="50" viewBox="0 0 50 50" fill="none" xmlns="http://www.w3.org/2000/svg">
<circle cx="25" cy="25" r="24.5" stroke="black"/>
<g clip-path="url(#clip0_506_200)">
<path d="M16.1667 8C13.8685 8 12 9.86849 12 12.1667V37.1667C12 39.4648 13.8685 41.3333 16.1667 41.3333H32.8333C35.1315 41.3333 37 39.4648 37 37.1667V18.4167H28.6667C27.5143 18.4167 26.5833 17.4857 26.5833 16.3333V8H16.1667ZM28.6667 8V16.3333H37L28.6667 8ZM16.1667 22.5833H17.7292C19.7409 22.5833 21.375 24.2174 21.375 26.2292C21.375 28.2409 19.7409 29.875 17.7292 29.875H17.2083V31.9583C17.2083 32.5312 16.7396 33 16.1667 33C15.5937 33 15.125 32.5312 15.125 31.9583V28.8333V23.625C15.125 23.0521 15.5937 22.5833 16.1667 22.5833ZM17.7292 27.7917C18.5951 27.7917 19.2917 27.0951 19.2917 26.2292C19.2917 25.3633 18.5951 24.6667 17.7292 24.6667H17.2083V27.7917H17.7292ZM22.4167 23.625C22.4167 23.0521 22.8854 22.5833 23.4583 22.5833H25.0208C26.7461 22.5833 28.1458 23.9831 28.1458 25.7083V29.875C28.1458 31.6003 26.7461 33 25.0208 33H23.4583C22.8854 33 22.4167 32.5312 22.4167 31.9583V23.625ZM24.5 30.9167H25.0208C25.5937 30.9167 26.0625 30.4479 26.0625 29.875V25.7083C26.0625 25.1354 25.5937 24.6667 25.0208 24.6667H24.5V30.9167ZM30.75 22.5833H33.875C34.4479 22.5833 34.9167 23.0521 34.9167 23.625C34.9167 24.1979 34.4479 24.6667 33.875 24.6667H31.7917V26.75H33.875C34.4479 26.75 34.9167 27.2188 34.9167 27.7917C34.9167 28.3646 34.4479 28.8333 33.875 28.8333H31.7917V31.9583C31.7917 32.5312 31.3229 33 30.75 33C30.1771 33 29.7083 32.5312 29.7083 31.9583V27.7917V23.625C29.7083 23.0521 30.1771 22.5833 30.75 22.5833Z" fill="black"/>
</g>
<defs>
<clipPath id="clip0_506_200">
<rect width="25" height="33.3333" fill="white" transform="translate(12 8)"/>
</clipPath>
</defs>
</svg>
