<svg width="20" height="19" viewBox="0 0 20 19" fill="none" xmlns="http://www.w3.org/2000/svg">
<g clip-path="url(#clip0_35_195)">
<path d="M18.8889 0.295898C19.5035 0.295898 20 0.792426 20 1.40701V16.9626C20 17.5771 19.5035 18.0737 18.8889 18.0737C18.2743 18.0737 17.7778 17.5771 17.7778 16.9626V1.40701C17.7778 0.792426 18.2743 0.295898 18.8889 0.295898ZM14.4444 3.62923C15.059 3.62923 15.5556 4.12576 15.5556 4.74034V16.9626C15.5556 17.5771 15.059 18.0737 14.4444 18.0737C13.8299 18.0737 13.3333 17.5771 13.3333 16.9626V4.74034C13.3333 4.12576 13.8299 3.62923 14.4444 3.62923ZM11.1111 8.07368V16.9626C11.1111 17.5771 10.6146 18.0737 10 18.0737C9.38542 18.0737 8.88889 17.5771 8.88889 16.9626V8.07368C8.88889 7.45909 9.38542 6.96256 10 6.96256C10.6146 6.96256 11.1111 7.45909 11.1111 8.07368ZM5.55556 10.2959C6.17014 10.2959 6.66667 10.7924 6.66667 11.407V16.9626C6.66667 17.5771 6.17014 18.0737 5.55556 18.0737C4.94097 18.0737 4.44444 17.5771 4.44444 16.9626V11.407C4.44444 10.7924 4.94097 10.2959 5.55556 10.2959ZM2.22222 14.7403V16.9626C2.22222 17.5771 1.72569 18.0737 1.11111 18.0737C0.496528 18.0737 0 17.5771 0 16.9626V14.7403C0 14.1258 0.496528 13.6292 1.11111 13.6292C1.72569 13.6292 2.22222 14.1258 2.22222 14.7403Z" fill="black"/>
</g>
<defs>
<clipPath id="clip0_35_195">
<rect width="20" height="17.7778" fill="white" transform="translate(0 0.295898)"/>
</clipPath>
</defs>
</svg>
